<svg id="Layer_1" data-name="Layer 1" xmlns="http://www.w3.org/2000/svg" viewBox="0 0 278.89 272"><defs><style>.cls-1{fill:#f0f;}</style></defs><title>3</title><path class="cls-1" d="M147.8,278.4A135.56,135.56,0,0,1,100.74,270a6,6,0,1,1,4.15-11.26,124.17,124.17,0,0,0,156-65.57,6,6,0,1,1,10.94,4.92A136.28,136.28,0,0,1,147.8,278.4Z" transform="translate(-20.93 -6.4)"/><path class="cls-1" d="M26.93,100.43a6,6,0,0,1-5.57-8.22A136,136,0,0,1,265.44,74.12a6,6,0,0,1-10.37,6A124,124,0,0,0,32.51,96.64,6,6,0,0,1,26.93,100.43Z" transform="translate(-20.93 -6.4)"/><circle class="cls-1" cx="46.26" cy="237.26" r="6"/><circle class="cls-1" cx="64.87" cy="249.76" r="6"/><path class="cls-1" d="M275.75,114.89,243.32,96.52a6,6,0,0,1,5.91-10.44l23.39,13.25,16.45-21.26a6,6,0,0,1,9.49,7.34Z" transform="translate(-20.93 -6.4)"/></svg>