<svg id="Layer_1" data-name="Layer 1" xmlns="http://www.w3.org/2000/svg" viewBox="0 0 285.73 272"><defs><style>.cls-1{fill:#f0f;}</style></defs><title>1</title><path class="cls-1" d="M23.93,158.95a6,6,0,0,1-6-5.52c-.29-3.65-.44-7.36-.44-11,0-75,61-136,136-136A136,136,0,0,1,273.09,77.57a6,6,0,1,1-10.54,5.73,124,124,0,0,0-233,59.1c0,3.35.14,6.74.4,10.07a6,6,0,0,1-5.5,6.46Z" transform="translate(-17.51 -6.4)"/><path class="cls-1" d="M153.51,278.4A136.4,136.4,0,0,1,29.73,198.81a6,6,0,0,1,10.92-5A124,124,0,0,0,249.2,221.27a6,6,0,0,1,9.25,7.64A135.64,135.64,0,0,1,153.51,278.4Z" transform="translate(-17.51 -6.4)"/><circle class="cls-1" cx="10" cy="168" r="6"/><path class="cls-1" d="M279.18,117.9,246.74,99.53a6,6,0,1,1,5.91-10.44L276,102.33,292.5,81.07A6,6,0,0,1,302,88.42Z" transform="translate(-17.51 -6.4)"/></svg>