<svg id="Layer_1" data-name="Layer 1" xmlns="http://www.w3.org/2000/svg" viewBox="0 0 280.36 272"><defs><style>.cls-1{fill:#f0f;}</style></defs><title>2</title><path class="cls-1" d="M149.13,278.4A136.06,136.06,0,0,1,20.52,186.73a6,6,0,0,1,11.35-3.91,124.05,124.05,0,0,0,231.46,8,6,6,0,1,1,11,4.69A135.84,135.84,0,0,1,149.13,278.4Z" transform="translate(-20.2 -6.4)"/><path class="cls-1" d="M263.45,86.43a6,6,0,0,1-5.28-3.14A124.09,124.09,0,0,0,87.64,34.69a6,6,0,1,1-6-10.42,136.09,136.09,0,0,1,187,53.29,6,6,0,0,1-5.27,8.87Z" transform="translate(-20.2 -6.4)"/><circle class="cls-1" cx="30.27" cy="51.33" r="6"/><circle class="cls-1" cx="46.44" cy="35.33" r="6"/><path class="cls-1" d="M294.56,195.94a6,6,0,0,1-4.75-2.33l-16.45-21.26L250,185.59a6,6,0,0,1-5.91-10.44l32.44-18.37,22.81,29.48a6,6,0,0,1-4.74,9.67Z" transform="translate(-20.2 -6.4)"/></svg>