<svg id="Layer_1" data-name="Layer 1" xmlns="http://www.w3.org/2000/svg" viewBox="0 0 263.03 272"><defs><style>.cls-1{fill:#f0f;}</style></defs><title>4</title><circle class="cls-1" cx="38.63" cy="231.38" r="6"/><path class="cls-1" d="M155.89,278.4A136.63,136.63,0,0,1,124,274.64a6,6,0,0,1,2.8-11.67A124,124,0,1,0,71.57,51.48a6,6,0,0,1-8.16-8.8A135.56,135.56,0,0,1,155.89,6.4c75,0,136,61,136,136S230.89,278.4,155.89,278.4Z" transform="translate(-28.86 -6.4)"/><path class="cls-1" d="M53.41,228.39a6,6,0,0,1-4.73-2.31,135.78,135.78,0,0,1-19.4-33.95,6,6,0,1,1,11.17-4.39,123.77,123.77,0,0,0,17.69,31,6,6,0,0,1-4.72,9.7Z" transform="translate(-28.86 -6.4)"/><circle class="cls-1" cx="54.28" cy="243.81" r="6"/><circle class="cls-1" cx="72.37" cy="254.04" r="6"/></svg>