<?xml version="1.0"?>
<svg xmlns="http://www.w3.org/2000/svg" height="512px" viewBox="-16 -16 512 512" width="512px"><path d="m240 403.328125 120-72v-116.917969l60.390625-34.410156-180.820313-103.042969-179.800781 103.050781 60.230469 34.515626v116.796874zm80-166.117187v71.460937l-80 48-80-48v-71.230469l79.570312 45.589844zm-80.371094-114.167969 99.980469 56.957031-99.980469 56.957031-99.390625-56.976562zm0 0" fill="#FFFFFF"/><path d="m0 0h160v40h-160zm0 0" fill="#FFFFFF"/><path d="m260 440h220v40h-220zm0 0" fill="#FFFFFF"/><path d="m200 0h280v40h-280zm0 0" fill="#FFFFFF"/><path d="m0 440h220v40h-220zm0 0" fill="#FFFFFF"/><path d="m0 110h60v40h-60zm0 0" fill="#FFFFFF"/><path d="m420 330h60v40h-60zm0 0" fill="#FFFFFF"/><path d="m420 110h60v40h-60zm0 0" fill="#FFFFFF"/><path d="m0 330h80v40h-80zm0 0" fill="#FFFFFF"/><path d="m400 220h80v40h-80zm0 0" fill="#FFFFFF"/><path d="m0 220h60v40h-60zm0 0" fill="#FFFFFF"/></svg>
