<?xml version="1.0" encoding="utf-8"?>
<!-- Generator: Adobe Illustrator 21.1.0, SVG Export Plug-In . SVG Version: 6.00 Build 0)  -->
<svg version="1.1" id="Layer_1" xmlns="http://www.w3.org/2000/svg" xmlns:xlink="http://www.w3.org/1999/xlink" x="0px" y="0px"
	 viewBox="0 0 416 416" style="enable-background:new 0 0 416 416;" xml:space="preserve">
<path d="M180.1,416h143.8c4.5,0,8.1-3.6,8.1-8.1V306.1c0,0,0,0,0-0.1c6.5-11.8,12.4-21.6,17.6-30.2c19.6-32.6,30.4-50.6,30.4-104
	v-18.2C380,67,308.4-3.3,221.8,0.1C140.7,3.4,76,70.1,76,152v6.2c0,0,0,0,0,0l-39.3,86.4c-0.9,2-1,4.3-0.1,6.3s2.4,3.6,4.4,4.4
	l34.9,14c0,0,0.1,0.1,0.1,0.1v98.4c0,4.5,3.6,8.1,8.1,8.1H140c0.5,0,1.1-0.1,1.6-0.2l30.3-6.1c0.1,0,0.1,0,0.1,0.1v38
	C172,412.4,175.6,416,180.1,416z M139.2,360H92.1c-0.1,0-0.1-0.1-0.1-0.1V264c0-3.3-2-6.2-5-7.4l-32.1-12.8c-0.1,0-0.1-0.1-0.1-0.2
	l36.5-80.3c0.5-1,0.7-2.2,0.7-3.3v-6.3C92,76,156.3,12.8,233.9,16.1C306.3,19.2,364,78.9,364,152v19.8c0,49-8.8,63.6-28.1,95.8
	c-5.5,9.2-11.8,19.7-18.9,32.6c-0.6,1.2-1,2.5-1,3.9c0,13.8,0,92.5,0,95.9c0,0.1-0.1,0.1-0.1,0.1H188.1c-0.1,0-0.1-0.1-0.1-0.1
	v-36.1c0,0,0-0.1,0-0.1l45.1-37.6c1-0.9,1.8-2,2.3-3.2l13.6-34c1.3-3.3-0.3-7.1-3.6-8.4l-2.2-0.9c-3.7-1.5-7.9,0.3-9.3,4l-12.5,31.4
	c0,0,0,0,0,0l-44.8,37.4c0,0,0,0-0.1,0L139.2,360C139.2,360,139.2,360,139.2,360z"/>
<path d="M328,152c0-55.2-44.8-100-100-100c-55.2,0-100,44.8-100,100s44.8,100,100,100C283.2,251.9,327.9,207.2,328,152z M144,152
	c0-46.4,37.6-84,84-84s84,37.6,84,84s-37.6,84-84,84C181.6,235.9,144.1,198.4,144,152z"/>
<g>
	<g>
		<g>
			<path d="M256.5,178.8H199c-5.3,0-9.6,4.3-9.6,9.6c0,5.3,4.3,9.6,9.6,9.6h57.5c5.3,0,9.6-4.3,9.6-9.6
				C266.1,183.1,261.8,178.8,256.5,178.8z"/>
		</g>
	</g>
	<g>
		<g>
			<path d="M270.4,106c-13.2,0-24,10.7-24,24c0,5.3,4.3,9.6,9.6,9.6s9.6-4.3,9.6-9.6c0-2.6,2.1-4.8,4.8-4.8s4.8,2.1,4.8,4.8
				c0,5.3,4.3,9.6,9.6,9.6s9.6-4.3,9.6-9.6C294.4,116.7,283.6,106,270.4,106z"/>
		</g>
	</g>
	<g>
		<g>
			<path d="M185.6,106c-13.2,0-24,10.7-24,24c0,5.3,4.3,9.6,9.6,9.6s9.6-4.3,9.6-9.6c0-2.6,2.1-4.8,4.8-4.8s4.8,2.1,4.8,4.8
				c0,5.3,4.3,9.6,9.6,9.6s9.6-4.3,9.6-9.6C209.6,116.7,198.8,106,185.6,106z"/>
		</g>
	</g>
</g>
</svg>
