<svg height="512pt" viewBox="0 -15 512 512" width="512pt" xmlns="http://www.w3.org/2000/svg"><path d="m509.070312 414.929688c-1.875-1.875-4.417968-2.929688-7.070312-2.929688h-6v-289.996094c0-13.167968-8.527344-24.371094-20.347656-28.398437-4.285156-52.332031-48.238282-93.605469-101.65625-93.605469-52.871094 0-96.46875 40.433594-101.511719 92.003906h-146.484375c-5.523438 0-10 4.476563-10 10 0 5.519532 4.476562 10 10 10h146.484375c.332031 3.382813.828125 6.71875 1.484375 10h-237.96875c0-5.515625 4.484375-10 10-10h11.03125c5.523438 0 10-4.480468 10-10 0-5.523437-4.476562-10-10-10h-11.03125c-16.542969 0-30 13.457032-30 30v290h-6c-5.523438 0-10 4.476563-10 10v30c0 16.542969 13.457031 30 30 30h452c16.542969 0 30-13.457031 30-30v-30c0-2.652344-1.054688-5.199218-2.929688-7.074218zm-34.226562-297.578126c.734375 1.390626 1.15625 2.96875 1.15625 4.648438v.003906h-1.972656c.304687-1.539062.582031-3.089844.816406-4.652344zm-100.847656-97.351562c45.21875 0 82.003906 36.785156 82.003906 82.003906 0 45.214844-36.785156 82-82.003906 82-45.214844 0-82.003906-36.785156-82.003906-82 0-45.21875 36.789062-82.003906 82.003906-82.003906zm-93.828125 122.003906c15.585937 36.417969 51.773437 62 93.828125 62 42.054687 0 78.242187-25.582031 93.828125-62h8.175781v239.996094h-440v-239.996094zm211.832031 310c0 5.515625-4.484375 10-10 10h-452c-5.515625 0-10-4.484375-10-10v-20h177.714844c4.125 11.640625 15.246094 20 28.285156 20h60c13.039062 0 24.160156-8.359375 28.285156-20h71.714844c5.523438 0 10-4.480468 10-10 0-5.523437-4.476562-10-10-10h-80c-5.523438 0-10 4.476563-10 10 0 5.511719-4.484375 10-10 10h-60c-5.515625 0-10-4.484375-10-10 0-5.523437-4.480469-10-10-10h-170v-10.003906h440v10.003906h-21.035156c-5.523438 0-10 4.476563-10 10 0 5.523438 4.480468 10 10 10h37.035156zm0 0"/><path d="m85.765625 112.003906h.269531c5.519532 0 10-4.480468 10-10 0-5.523437-4.480468-10-10-10h-.269531c-5.523437 0-10 4.476563-10 10 0 5.519532 4.476563 10 10 10zm0 0"/><path d="m426.234375 412.003906h-.269531c-5.523438 0-10 4.476563-10 10 0 5.519532 4.476562 10 10 10h.269531c5.523437 0 10-4.480468 10-10 0-5.523437-4.476563-10-10-10zm0 0"/><path d="m324.5 92.503906c27.292969-27.292968 71.699219-27.292968 98.992188 0 1.953124 1.953125 4.511718 2.929688 7.074218 2.929688 2.558594 0 5.117188-.976563 7.070313-2.929688 3.902343-3.90625 3.902343-10.238281 0-14.144531-35.09375-35.089844-92.1875-35.089844-127.28125 0-3.902344 3.90625-3.902344 10.238281 0 14.144531 3.90625 3.90625 10.238281 3.90625 14.144531 0zm0 0"/><path d="m338.640625 106.644531c-3.902344 3.90625-3.902344 10.238281 0 14.144531 3.90625 3.902344 10.238281 3.902344 14.144531 0 11.695313-11.695312 30.730469-11.695312 42.425782 0 1.953124 1.953126 4.511718 2.929688 7.070312 2.929688s5.117188-.976562 7.070312-2.929688c3.90625-3.90625 3.90625-10.238281 0-14.144531-19.496093-19.492187-51.214843-19.492187-70.710937 0zm0 0"/><path d="m374.007812 132.003906h-.019531c-5.523437 0-9.992187 4.476563-9.992187 10 0 5.519532 4.488281 10 10.011718 10 5.523438 0 10-4.480468 10-10 0-5.523437-4.480468-10-10-10zm0 0"/><path d="m190.09375 315.097656c-.007812 7.199219 3.726562 13.660156 9.984375 17.28125 3.125 1.808594 6.554687 2.714844 9.984375 2.714844 3.414062 0 6.832031-.898438 9.949219-2.691406l91.984375-53.105469c6.144531-3.550781 9.957031-10.183594 9.953125-17.308594-.007813-7.210937-3.742188-13.664062-9.988281-17.261719-15.21875-8.785156-30.4375-17.578124-45.65625-26.371093-15.132813-8.742188-30.265626-17.484375-45.402344-26.226563-6.082032-3.929687-13.796875-4.265625-20.238282-.84375-6.546874 3.476563-10.613281 10.234375-10.613281 17.648438zm20.550781-105.796875c15.222657 8.789063 30.441407 17.582031 45.65625 26.371094 15.183594 8.773437 30.371094 17.546875 45.613281 26.351563l-91.820312 53.007812-.039062-106.097656c.191406.128906.390624.253906.589843.367187zm0 0"/></svg>