<?xml version="1.0" encoding="utf-8"?>
<!-- Generator: Adobe Illustrator 21.1.0, SVG Export Plug-In . SVG Version: 6.00 Build 0)  -->
<svg version="1.1" id="Layer_1" xmlns="http://www.w3.org/2000/svg" xmlns:xlink="http://www.w3.org/1999/xlink" x="0px" y="0px"
	 viewBox="0 0 512 512" style="enable-background:new 0 0 512 512;" xml:space="preserve">
<style type="text/css">
	.st0{fill:#00040C;}
</style>
<path class="st0" d="M33.6,505c-6.2,0-12.4-2.1-17-6.2c-6.9-6.2-9.9-15.3-8-24.2c5.1-24.7,20.7-46.3,42.7-59.2l7.3-4.3l-4.8-7.1
	c-6.3-9.3-9.3-20.2-8.8-31.5c1.3-28,25.1-50.1,53.1-49.5c28.1,0.6,50.9,23.7,50.9,52c0,10.4-3.1,20.4-8.8,29l-4.8,7.1l7.3,4.3
	c10.8,6.3,20,14.6,27.3,24.6l6.5,8.8l6.5-8.8c7.4-10,16.5-18.3,27.3-24.6l7.3-4.3l-4.8-7.1c-6.3-9.3-9.3-20.2-8.8-31.5
	c1.3-28,25.1-50.1,53.1-49.5c28.1,0.6,50.9,23.7,50.9,52c0,10.4-3.1,20.4-8.8,29l-4.8,7.1l7.3,4.3c10.8,6.3,20,14.6,27.3,24.6
	l6.5,8.8l6.5-8.8c7.3-10,16.5-18.3,27.3-24.6l7.3-4.3l-4.8-7.1c-6.2-9.3-9.3-20.2-8.8-31.4c1.3-28,25-50.1,53-49.6
	c28.2,0.6,50.9,23.7,50.9,52c0,28.2-22.9,51.5-51.1,52c-0.2,0-0.4,0-0.6,0h-0.9c-27.5,0-52.3,17.4-61.8,43.2l-3.9,10.8h129.9
	l1.3-6.4c1-4.7,4.6-8.4,9.3-9.3c0.8-0.2,1.6-0.3,2.5-0.3c5.6,0,10.6,4,11.7,9.6c1.8,8.8-1.1,18-8,24.1c-4.7,4.2-10.8,6.3-17.1,6.3
	H33.6z M255.5,427c-27.5,0-52.3,17.4-61.8,43.2l-3.9,10.8h132.5l-3.9-10.8c-9.5-25.9-34.3-43.2-61.8-43.2H255.5z M96.5,427
	c-27.5,0-52.3,17.4-61.8,43.2L30.7,481h132.6l-3.9-10.8C149.8,444.4,125,427,97.5,427H96.5z M417.3,347.1
	c-17.2-1.4-31.6,13-30.2,30.2c1.1,13.6,12.1,24.5,25.6,25.6c17.2,1.4,31.6-13,30.2-30.2C441.8,359.2,430.8,348.2,417.3,347.1z
	 M258.3,347.1c-17.2-1.4-31.6,13-30.2,30.2c1.1,13.6,12.1,24.5,25.6,25.6c17.2,1.4,31.6-13,30.2-30.2
	C282.8,359.2,271.8,348.2,258.3,347.1z M99.3,347.1c-17.2-1.4-31.6,13-30.2,30.2c1.1,13.6,12.1,24.5,25.6,25.6
	c17.2,1.4,31.6-13,30.2-30.2C123.8,359.2,112.8,348.2,99.3,347.1z M488.9,301c-1.7,0-3.4-0.4-5.1-1.1c-1.7-0.8-3.2-2-4.4-3.5
	c-2.5-3.3-3.2-7.4-1.9-11.2c1.6-4.9,2.5-10,2.5-15.2V81c0-26.5-21.5-48-48-48H80c-26.5,0-48,21.5-48,48v189c0,5.2,0.8,10.2,2.4,15.1
	c0.8,2.4,0.9,5,0.2,7.4c-1.2,3.8-4,6.7-7.7,7.9c-3,1-6.2,0.8-9.1-0.6c-3-1.4-5.2-4.2-6.2-7.3C9.2,285.2,8,277.7,8,270V81
	C8,41.2,40.2,9,80,9h352c39.8,0,72,32.2,72,72v189c0,7.8-1.2,15.5-3.7,22.8C498.7,297.7,494.1,301,488.9,301z M226.1,263
	c-5.4,0-10.7-1.5-15.5-4.2c-9.8-5.6-15.6-15.7-15.6-27v-99.6c0-11.3,5.8-21.4,15.6-27c4.8-2.7,10.1-4.2,15.5-4.2
	c5.4,0,10.8,1.5,15.6,4.3l85.9,49.8c9.7,5.6,15.5,15.7,15.5,27c0,11.2-5.8,21.3-15.5,27l-85.9,49.8C236.8,261.6,231.5,263,226.1,263
	z M219,244.2L326.1,182L219,119.8V244.2z"/>
</svg>
