<?xml version="1.0" encoding="utf-8"?>
<!-- Generator: Adobe Illustrator 21.1.0, SVG Export Plug-In . SVG Version: 6.00 Build 0)  -->
<svg version="1.1" id="Capa_1" xmlns="http://www.w3.org/2000/svg" xmlns:xlink="http://www.w3.org/1999/xlink" x="0px" y="0px"
	 viewBox="0 0 512 512" style="enable-background:new 0 0 512 512;" xml:space="preserve">
<g id="XMLID_333_">
	<path d="M295,409.8c-3.2-7.7-10.7-13.1-19.6-13.1h-22.9v-14h22.9c16.6,0,30.5,11.6,34.2,27.1H295z"/>
	<path d="M290.6,335.7v-14h2.7c10,0,18.2-8.1,18.2-18.2v-21.1c0-20.3,16.2-37.2,36.1-37.8c0.4,0,0.7,0,1.1,0
		c9.7,0,18.9,3.7,25.9,10.5c5.3,5.2,8.9,11.6,10.4,18.6h-14.5c-1.2-3.2-3.1-6.2-5.6-8.6c-4.4-4.2-10.1-6.6-16.2-6.6
		c-0.2,0-0.4,0-0.7,0c-12.4,0.3-22.5,11-22.5,23.8v21.1c0,17.7-14.4,32.1-32.1,32.1H290.6z"/>
	<path d="M237.9,273.7c-3.3-8.7-11.7-15-21.5-15s-18.3,6.2-21.5,15h-14.5c3.7-16.5,18.4-28.9,36-28.9s32.4,12.4,36,28.9H237.9z"/>
	<path d="M281.6,504c-41.4,0-80.8-15.8-110.9-44.4c-30-28.5-47.7-66.9-49.8-108l-0.3-6.6l-6.6-0.9c-23.6-3.1-41.4-23.4-41.4-47.2
		c0-23.7,17.7-44,41.2-47.2l6.9-0.9V230h-18.9v-22.3l-4.3-2.2c-2.9-1.5-5.7-3.2-8.4-4.9l-4.1-2.7l-20.3,11.7l-39.6-68.7L47,128.2
		l-0.1-4.7c0-0.6,0-1.1,0-1.6c0-1.7,0-3.4,0.1-5.2l0.3-4.9l-23-13.3L64,29.8l24,13.9l4.1-2.5c1.3-0.8,2.7-1.6,4.1-2.4l4.2-2.3V8
		h79.3v27.2l4.4,2.2c1.6,0.8,3.2,1.7,4.8,2.6l4,2.3l23.9-13.8l27.9,48.3l5.3-0.7c10-1.3,22.7-2.2,31.7-2.2
		c88.7,0,160.9,72.2,160.9,160.9v13.9l6.9,0.9c23.5,3.2,41.2,23.5,41.2,47.2c0,23.8-17.8,44.1-41.4,47.2l-6.6,0.9l-0.3,6.6
		c-2.2,41.1-19.8,79.4-49.8,108C362.4,488.2,323,504,281.6,504z M134.6,343.1c0,81,65.9,146.9,146.9,146.9
		c81,0,146.9-65.9,146.9-146.9v-12.6h14.4c18.6,0,33.7-15.1,33.7-33.7c0-14.9-9.6-27.8-23.8-32.2l-10.4-3.2v29.9h-14v-56.6
		c0-81-65.9-146.9-146.9-146.9c-4.7,0-10.7,0.3-17,0.8l-12.7,1l4.4,7.6l-21.1,12.2l0.4,5c0.2,2.5,0.3,4.9,0.3,7.4l0,5.6l21.1,12.2
		l-39.6,68.7l-18.9-10.9l-4.1,2.8c-2.9,1.9-5.9,3.7-9,5.4l-4.3,2.2V230h-46.4v62.2h-14v-30.7l-10.4,3.2
		c-14.2,4.4-23.8,17.3-23.8,32.2c0,18.6,15.1,33.7,33.7,33.7h14.4V343.1z M115.7,216.1h51.4v-17.8l4.4-1.8
		c7.9-3.2,15.2-7.6,21.7-13.1l3.7-3.1l15.3,8.8l25.7-44.5l-16.9-9.8l0.5-4.5c0.3-2.9,0.5-5.8,0.5-8.6c0-4.9-0.5-9.8-1.4-14.7
		l-0.9-4.8l17.5-10.1l-25.7-44.5l-19.6,11.3l-3.7-2.6c-5.6-4-11.7-7.3-18.1-9.8l-4.5-1.7V22h-51.4v23.8l-4.3,1.8
		c-6.1,2.6-11.9,6-17.2,10l-3.7,2.8l-20-11.5L43.4,93.4l19.2,11.1l-0.7,4.7c-0.7,4.2-1,8.4-1,12.6c0,3,0.2,6.1,0.6,9.3l0.5,4.6
		l-17.8,10.3l25.7,44.5l16.6-9.6l3.7,3.1c6.4,5.3,13.5,9.5,21.2,12.6l4.4,1.8V216.1z"/>
	<path d="M141.7,166.1c-24.4,0-44.2-19.8-44.2-44.2s19.8-44.2,44.2-44.2s44.2,19.8,44.2,44.2S166.1,166.1,141.7,166.1z M141.7,91.7
		c-16.7,0-30.2,13.6-30.2,30.2s13.6,30.2,30.2,30.2s30.2-13.6,30.2-30.2S158.4,91.7,141.7,91.7z"/>
</g>
</svg>
