<?xml version="1.0" encoding="utf-8"?>
<!-- Generator: Adobe Illustrator 21.1.0, SVG Export Plug-In . SVG Version: 6.00 Build 0)  -->
<svg version="1.1" id="Layer_1" xmlns="http://www.w3.org/2000/svg" xmlns:xlink="http://www.w3.org/1999/xlink" x="0px" y="0px"
	 viewBox="0 0 512 512" style="enable-background:new 0 0 512 512;" xml:space="preserve">
<path d="M196,295c-22.1,0-40-17.9-40-40c0-1.6,0.1-3.2,0.3-4.9l0.4-3.5l-50.5-25.2l-2.5,2.5C96.2,231,86.4,235,76,235
	c-22.1,0-40-17.9-40-40s17.9-40,40-40s40,17.9,40,40c0,1.6-0.1,3.2-0.3,4.9l-0.4,3.5l50.5,25.2l2.5-2.5c7.5-7.2,17.4-11.2,27.7-11.2
	c6,0,11.8,1.3,17.2,3.9l3.2,1.5l65-65l-1.5-3.2c-2.6-5.4-3.9-11.2-3.9-17.2c0-22.1,17.9-40,40-40c7.9,0,15.6,2.3,22.1,6.7l2.9,2
	l57.8-43.3l-1.1-3.4c-1.2-3.9-1.8-7.9-1.8-12c0-22.1,17.9-40,40-40s40,17.9,40,40s-17.9,40-40,40c-7.9,0-15.6-2.3-22.1-6.7l-2.9-2
	l-57.8,43.3l1.1,3.4c1.2,3.9,1.8,7.9,1.8,12c0,22.1-17.9,40-40,40c-6,0-11.8-1.3-17.2-3.9l-3.2-1.5l-65,65l1.5,3.2
	c2.6,5.4,3.9,11.2,3.9,17.2C236,277.1,218.1,295,196,295z M196,235c-11,0-20,9-20,20c0,11,9,20,20,20s20-9,20-20
	C216,244,207,235,196,235z M76,175c-11,0-20,9-20,20s9,20,20,20s20-9,20-20S87,175,76,175z M316,115c-11,0-20,9-20,20s9,20,20,20
	s20-9,20-20S327,115,316,115z M436,25c-11,0-20,9-20,20s9,20,20,20s20-9,20-20S447,25,436,25z"/>
<path d="M15,507c-5.5,0-10-4.5-10-10s4.5-10,10-10h21V315c0-5.5,4.5-10,10-10h60c5.5,0,10,4.5,10,10v172h40V375c0-5.5,4.5-10,10-10
	h60c5.5,0,10,4.5,10,10v112h40V255c0-5.5,4.5-10,10-10h60c5.5,0,10,4.5,10,10v232h40V165c0-5.5,4.5-10,10-10h60c5.5,0,10,4.5,10,10
	v322h21c5.5,0,10,4.5,10,10s-4.5,10-10,10H15z M416,487h40V175h-40V487z M296,487h40V265h-40V487z M176,487h40V385h-40V487z M56,487
	h40V325H56V487z"/>
</svg>
