<?xml version="1.0" encoding="utf-8"?>
<!-- Generator: Adobe Illustrator 21.1.0, SVG Export Plug-In . SVG Version: 6.00 Build 0)  -->
<svg version="1.1" id="Capa_1" xmlns="http://www.w3.org/2000/svg" xmlns:xlink="http://www.w3.org/1999/xlink" x="0px" y="0px"
	 viewBox="0 0 465 465" style="enable-background:new 0 0 465 465;" xml:space="preserve">
<g>
	<path d="M434.2,25.3H30.8C13.9,25.3,0.1,39.1,0.1,56v272.3c0,16.9,13.8,30.7,30.7,30.7h403.5c16.9,0,30.7-13.8,30.7-30.7V56
		C464.9,39.1,451.1,25.3,434.2,25.3z M21.1,56c0-5.3,4.3-9.7,9.7-9.7h403.5c5.3,0,9.7,4.3,9.7,9.7l0,272.3c0,5.3-4.3,9.7-9.7,9.7
		H30.8c-5.3,0-9.7-4.3-9.7-9.7V56z"/>
	<path d="M232.5,187.5c33.6,0,60.9-27.3,60.9-60.9s-27.3-60.9-60.9-60.9c-33.6,0-60.9,27.3-60.9,60.9S198.9,187.5,232.5,187.5z
		 M232.5,86.6c22,0,40,17.9,40,40s-17.9,40-40,40c-22,0-40-17.9-40-40S210.5,86.6,232.5,86.6z"/>
	<path d="M153.8,267.4c1.3,0.5,2.6,0.8,3.9,0.8c4.3,0,8.1-2.6,9.7-6.6c10.8-26.7,36.3-43.9,65.1-43.9s54.3,17.2,65.1,43.9
		c1.6,4,5.4,6.5,9.7,6.5c1.3,0,2.7-0.3,3.9-0.8c5.4-2.2,7.9-8.3,5.8-13.6c-14-34.6-47.2-57-84.5-57c-37.3,0-70.5,22.4-84.5,57
		C145.8,259.1,148.4,265.3,153.8,267.4z"/>
	<path d="M40.2,308.5h384.6c5.8,0,10.5-4.7,10.5-10.5s-4.7-10.5-10.5-10.5H40.2c-5.8,0-10.5,4.7-10.5,10.5S34.4,308.5,40.2,308.5z"
		/>
	<path d="M353.5,418.7h-60.1v-40.6c0-5.8-4.7-10.5-10.5-10.5s-10.5,4.7-10.5,10.5v40.6h-79.9v-40.6c0-5.8-4.7-10.5-10.5-10.5
		s-10.5,4.7-10.5,10.5v40.6h-60.1c-5.8,0-10.5,4.7-10.5,10.5s4.7,10.5,10.5,10.5h242.1c5.8,0,10.5-4.7,10.5-10.5
		S359.3,418.7,353.5,418.7z"/>
</g>
</svg>
